<?xml version="1.0" standalone="no"?>
<!DOCTYPE svg PUBLIC "-//W3C//DTD SVG 20010904//EN"
 "http://www.w3.org/TR/2001/REC-SVG-20010904/DTD/svg10.dtd">
<svg version="1.0" xmlns="http://www.w3.org/2000/svg"
 width="700.000000pt" height="700.000000pt" viewBox="0 0 700.000000 700.000000"
 preserveAspectRatio="xMidYMid meet">
<metadata>
Created by potrace 1.14, written by Peter Selinger 2001-2017
</metadata>
<g transform="translate(0.000000,700.000000) scale(0.100000,-0.100000)"
fill="#000000" stroke="none">
<path d="M2465 6341 c-11 -4 -35 -14 -53 -24 -23 -13 -37 -15 -51 -8 -53 29
-154 23 -190 -10 -12 -11 -32 -20 -44 -19 -56 5 -95 -2 -127 -22 -25 -16 -53
-22 -97 -24 -74 -2 -141 -25 -173 -59 -16 -17 -34 -25 -57 -25 -93 0 -182 -55
-184 -113 0 -12 -2 -29 -4 -38 -1 -8 3 -32 10 -52 11 -33 10 -42 -6 -74 -26
-51 -24 -80 10 -148 22 -43 27 -63 20 -76 -22 -43 3 -118 54 -159 16 -14 20
-27 19 -63 -3 -56 18 -109 57 -146 19 -17 31 -42 35 -66 8 -47 24 -73 80 -129
24 -23 53 -62 64 -87 12 -24 27 -51 34 -60 19 -23 88 -65 120 -72 20 -5 33
-19 47 -51 20 -47 77 -88 139 -101 18 -4 30 -10 27 -15 -2 -4 -37 -27 -77 -51
-91 -54 -234 -194 -280 -274 -76 -132 -115 -268 -125 -435 -7 -115 -20 -148
-87 -203 -160 -132 -260 -290 -313 -497 -66 -256 -9 -524 158 -742 27 -36 40
-66 53 -130 10 -46 35 -135 57 -198 21 -63 41 -135 45 -160 20 -137 111 -334
203 -440 102 -117 243 -227 341 -266 25 -10 68 -37 97 -60 108 -88 264 -179
415 -244 54 -22 113 -55 130 -72 134 -125 308 -217 484 -253 79 -16 244 -22
319 -10 179 28 369 119 505 244 30 27 80 60 110 72 175 71 314 150 464 266 37
29 74 53 81 53 22 0 134 67 200 120 174 139 297 334 346 550 12 52 51 183 87
290 58 176 69 200 111 250 224 263 267 605 116 912 -62 126 -141 223 -247 304
-82 63 -95 90 -101 209 -6 107 -9 126 -33 220 -18 68 -69 185 -105 238 -66 96
-174 195 -309 281 l-44 29 41 12 c69 20 114 54 134 101 16 36 27 45 69 60 59
21 115 72 130 119 7 21 25 42 45 55 64 40 113 110 120 170 1 14 20 44 42 66
38 40 53 76 53 133 0 14 16 58 36 96 26 52 35 80 33 110 -2 27 4 54 19 83 27
50 30 100 9 157 -12 33 -12 46 -2 76 17 49 11 112 -14 148 -24 34 -86 61 -139
61 -26 0 -44 7 -61 26 -35 36 -87 55 -163 58 -47 2 -74 8 -86 20 -27 23 -81
37 -119 30 -22 -4 -52 2 -98 21 -73 29 -135 32 -193 9 -29 -12 -36 -11 -67 8
-45 26 -96 25 -164 -1 -29 -12 -57 -19 -62 -16 -25 16 -106 6 -149 -19 -31
-18 -60 -26 -93 -26 -62 0 -101 -17 -161 -71 -33 -29 -57 -43 -72 -41 -79 11
-232 -159 -334 -369 -22 -46 -40 -90 -40 -98 0 -25 -16 0 -39 62 -41 113 -99
211 -170 291 -51 56 -147 116 -186 116 -24 0 -43 11 -75 41 -54 51 -95 69
-158 69 -34 0 -63 8 -93 24 -51 29 -90 36 -138 25 -24 -5 -43 -3 -62 6 -37 20
-100 32 -124 26z m-102 -177 c26 -8 72 -30 101 -49 29 -19 56 -31 60 -28 11
11 6 49 -9 69 -8 10 -15 22 -15 27 0 11 76 -29 149 -80 72 -49 81 -47 90 18
l6 41 73 -72 c83 -80 102 -81 95 -8 l-4 43 58 -60 c32 -33 73 -78 90 -100 34
-43 42 -43 47 1 2 16 4 33 5 39 2 15 57 -52 121 -147 32 -49 73 -125 91 -170
28 -72 33 -95 33 -173 1 -76 -3 -97 -23 -137 -26 -51 -78 -105 -127 -133 l-31
-17 -64 51 c-137 111 -326 231 -507 320 -167 83 -486 211 -497 199 -3 -2 26
-20 62 -38 231 -120 520 -301 700 -440 93 -72 213 -191 213 -212 0 -29 -47
-114 -87 -159 -101 -112 -278 -178 -493 -183 -129 -4 -136 -1 -97 34 18 16 29
31 26 34 -3 3 -35 8 -70 11 -98 9 -167 20 -177 30 -3 3 1 5 9 5 15 1 65 38 58
44 -2 1 -41 15 -86 31 -94 32 -179 76 -176 90 2 5 13 10 26 10 12 1 31 6 42
12 17 10 14 13 -24 32 -61 32 -147 80 -165 94 -6 4 -20 14 -31 22 -19 13 -17
14 21 15 51 0 76 23 44 40 -21 11 -31 19 -90 71 -14 12 -35 28 -47 36 -34 23
-28 30 22 27 25 -1 45 1 45 4 0 4 -18 27 -41 52 -59 65 -119 140 -119 150 0 4
15 4 33 0 31 -6 87 5 87 18 0 4 -20 20 -45 35 -50 32 -128 115 -120 128 3 4
27 7 53 6 58 -2 58 4 4 116 l-38 77 30 1 c17 1 73 1 124 1 51 0 92 5 92 10 0
5 -11 24 -26 43 -14 18 -21 35 -17 38 20 11 146 7 207 -7 37 -9 72 -14 77 -10
14 8 11 25 -8 46 -9 10 -14 20 -12 22 2 3 49 -8 104 -23 55 -16 103 -26 108
-24 18 10 4 44 -30 72 l-38 31 30 -6 c17 -3 51 -12 78 -20z m2146 -3 c-15 -21
-20 -37 -15 -55 l7 -27 43 26 c45 26 208 86 215 79 3 -2 -10 -20 -28 -38 -59
-61 -41 -67 91 -31 l117 32 -30 -35 c-44 -50 -27 -58 67 -32 57 16 94 21 133
17 68 -7 78 -17 46 -47 -14 -13 -25 -26 -25 -30 0 -3 54 -6 120 -5 66 1 120
-3 120 -7 0 -5 -17 -34 -39 -66 -21 -31 -43 -72 -49 -89 l-11 -33 55 0 c29 0
54 -4 54 -8 0 -19 -62 -103 -105 -143 -30 -28 -42 -46 -36 -52 11 -11 71 -12
104 -1 19 6 19 5 -3 -27 -13 -19 -52 -62 -87 -97 -35 -35 -60 -68 -57 -74 4
-6 23 -8 45 -5 22 3 39 4 39 2 0 -2 -40 -38 -90 -81 -98 -85 -103 -104 -26
-104 l41 -1 -33 -28 c-19 -16 -76 -50 -128 -76 -52 -26 -93 -53 -91 -59 2 -6
19 -13 38 -16 33 -5 32 -6 -47 -42 -44 -20 -102 -42 -128 -49 -40 -10 -45 -14
-34 -27 7 -8 26 -21 42 -27 l29 -12 -35 -12 c-19 -6 -84 -16 -143 -21 -60 -5
-113 -15 -119 -21 -8 -8 -1 -19 24 -41 l35 -30 -125 6 c-297 14 -482 100 -563
261 -14 28 -27 57 -29 66 -3 19 66 97 144 160 29 24 55 46 58 49 3 3 32 26 65
51 138 105 360 243 590 368 122 67 147 83 93 62 -13 -5 -43 -17 -68 -26 -25
-10 -54 -21 -65 -26 -11 -4 -49 -20 -85 -35 -291 -118 -591 -286 -760 -424
-65 -53 -66 -53 -108 -26 -93 59 -138 152 -129 270 8 100 24 155 74 249 47 88
169 245 181 233 2 -3 9 -21 16 -41 l13 -37 59 68 c32 37 72 81 87 98 l28 31
-2 -25 c-5 -86 8 -88 82 -17 35 35 74 66 86 69 19 5 21 3 16 -27 -4 -26 -1
-36 17 -48 22 -15 26 -14 85 28 49 35 136 83 153 85 1 0 -7 -13 -19 -29z
m-853 -1436 c70 -17 217 -82 256 -113 158 -126 208 -231 159 -338 -86 -190
-512 -285 -841 -188 -181 53 -320 182 -320 296 0 96 153 243 324 312 65 26 88
32 161 42 22 4 41 7 42 8 10 8 161 -5 219 -19z m-940 -100 c83 -9 91 -15 74
-55 -8 -18 -32 -56 -54 -84 -50 -64 -228 -242 -321 -321 -38 -33 -72 -62 -75
-65 -47 -50 -281 -210 -347 -238 -102 -43 -116 -30 -109 100 11 192 73 336
201 463 63 62 100 90 168 123 134 67 300 94 463 77z m1794 -35 c50 -10 124
-36 175 -60 163 -78 293 -236 340 -415 25 -97 38 -247 23 -277 -29 -60 -208
38 -469 256 -139 116 -280 251 -355 341 -98 117 -107 150 -46 160 20 4 44 8
52 9 49 9 207 1 280 -14z m-227 -565 c328 -79 558 -389 560 -755 0 -99 -3
-126 -27 -193 -46 -137 -130 -242 -231 -292 -142 -71 -356 -66 -517 12 -214
103 -389 329 -426 548 -8 51 -9 199 0 245 41 221 188 387 388 438 52 14 193
12 253 -3z m-1280 -30 c144 -42 265 -161 319 -312 29 -84 32 -105 32 -233 0
-128 -19 -208 -79 -337 -120 -257 -380 -428 -633 -417 -292 14 -499 259 -487
577 4 98 8 124 36 213 31 102 84 195 151 269 194 212 446 303 661 240z m2172
-364 c160 -91 277 -272 303 -463 27 -205 -37 -429 -160 -562 -56 -60 -87 -65
-135 -23 -56 49 -133 232 -157 372 -3 17 -10 55 -16 85 -33 170 -32 397 1 496
24 71 39 94 74 110 39 17 32 18 90 -15z m-3298 -27 c41 -45 57 -125 58 -284 0
-240 -29 -421 -98 -600 -51 -136 -128 -211 -179 -176 -37 26 -99 109 -132 176
-56 113 -71 179 -70 325 0 116 3 139 28 210 48 140 141 263 256 341 74 51 97
52 137 8z m1800 -805 c128 -32 218 -83 308 -174 44 -45 88 -97 97 -116 41 -82
57 -128 65 -185 29 -191 -34 -374 -175 -505 -77 -73 -143 -111 -247 -146 -111
-36 -284 -38 -395 -4 -191 59 -339 180 -411 336 -37 82 -48 129 -50 211 -5
167 48 292 175 420 81 81 197 145 306 169 89 19 239 17 327 -6z m1388 -198
c73 -41 127 -209 131 -406 4 -208 -39 -343 -157 -490 -100 -123 -204 -205
-327 -255 -207 -84 -422 -45 -472 85 -17 44 -20 63 -22 130 -4 191 93 433 244
610 238 279 469 404 603 326z m-2920 -133 c121 -31 294 -158 415 -303 179
-215 243 -575 125 -700 -36 -39 -93 -57 -179 -57 -282 -2 -557 216 -662 525
-34 100 -38 127 -39 247 0 110 16 177 57 229 56 72 154 93 283 59z m1640
-1063 c202 -38 345 -119 345 -197 0 -71 -160 -217 -329 -298 -189 -92 -408
-102 -584 -28 -128 54 -280 167 -326 242 -34 54 -28 88 22 131 23 20 66 48 96
61 56 26 192 68 251 78 19 3 46 8 60 11 14 3 70 8 125 12 55 3 101 6 103 8 8
6 166 -6 237 -20z"/>
</g>
</svg>
